<svg width="640" height="360" viewBox="0 0 640 360" fill="none" xmlns="http://www.w3.org/2000/svg">
  <rect width="640" height="360" rx="28" fill="#F8FAFC"/>
  <rect x="36" y="46" width="568" height="268" rx="22" fill="#EEF2FF"/>
  <rect x="92" y="92" width="188" height="176" rx="18" fill="white"/>
  <rect x="116" y="116" width="140" height="14" rx="7" fill="#64748B"/>
  <rect x="116" y="140" width="112" height="10" rx="5" fill="#94A3B8"/>
  <rect x="116" y="158" width="126" height="10" rx="5" fill="#94A3B8"/>
  <path d="M328 222L354 158L382 224L412 130L442 226L468 172L496 222" stroke="#10B981" stroke-width="8" stroke-linecap="round" stroke-linejoin="round"/>
  <circle cx="486" cy="114" r="20" fill="#10B981" fill-opacity="0.25"/>
  <path d="M486 96L491 109L505 109L494 117L499 130L486 122L473 130L478 117L467 109L481 109L486 96Z" fill="#059669"/>
</svg>
